<?xml version="1.0" standalone="no"?>
<!DOCTYPE svg PUBLIC "-//W3C//DTD SVG 20010904//EN"
 "http://www.w3.org/TR/2001/REC-SVG-20010904/DTD/svg10.dtd">
<svg version="1.0" xmlns="http://www.w3.org/2000/svg"
 width="524.000000pt" height="548.000000pt" viewBox="0 0 524.000000 548.000000"
 preserveAspectRatio="xMidYMid meet">

<g transform="translate(0.000000,548.000000) scale(0.100000,-0.100000)"
fill="#000000" stroke="none">
<path d="M1130 5320 c-36 -132 -51 -346 -31 -446 l8 -41 -84 85 c-45 47 -86
83 -89 80 -3 -4 -15 3 -27 15 -20 20 -22 21 -25 3 -4 -19 60 -120 123 -194 21
-23 59 -54 85 -67 36 -18 51 -33 59 -57 93 -288 93 -453 1 -720 -22 -62 -64
-185 -94 -273 -31 -88 -56 -151 -56 -140 0 30 -61 153 -103 207 -51 66 -65 98
-82 180 -8 40 -25 104 -37 141 -20 61 -21 73 -10 127 11 53 11 63 -6 97 -11
21 -29 70 -42 108 -34 104 -63 157 -124 222 -53 57 -132 120 -140 112 -2 -2
18 -52 45 -111 26 -59 58 -140 69 -180 12 -40 28 -91 36 -113 17 -44 63 -109
71 -101 3 3 -4 17 -16 32 -19 24 -71 168 -71 198 0 6 -25 60 -55 119 -30 58
-55 110 -55 114 0 5 5 0 11 -10 6 -9 14 -15 19 -12 11 7 114 -106 146 -161 35
-59 104 -250 103 -283 0 -15 -4 -35 -8 -46 -7 -18 -10 -17 -26 15 -10 19 -44
103 -76 186 -58 153 -117 280 -125 272 -2 -3 9 -31 25 -64 31 -61 132 -326
135 -355 1 -9 9 -27 17 -40 34 -53 30 -51 -41 22 -41 42 -86 82 -100 89 -14 7
0 -10 31 -38 66 -60 200 -232 162 -209 -6 4 -13 2 -15 -5 -3 -8 -17 -6 -48 10
-23 11 -38 16 -32 10 7 -7 35 -23 64 -37 l53 -26 22 -89 c16 -69 31 -103 63
-145 51 -69 95 -160 111 -226 6 -27 14 -57 17 -65 3 -8 4 -28 3 -45 -1 -16 14
29 33 100 19 72 68 222 110 335 41 113 82 241 91 285 12 62 26 95 61 148 53
80 51 88 -3 15 l-38 -53 -7 100 c-5 69 -17 131 -39 200 -17 55 -34 123 -36
150 -4 38 -8 45 -14 30 -5 -14 -8 1 -10 45 -1 54 -3 59 -8 30 l-7 -35 -9 49
c-17 102 12 466 37 466 15 0 49 -88 61 -157 7 -48 7 -88 -1 -151 -6 -47 -10
-87 -8 -90 10 -9 31 120 31 188 0 86 -24 163 -66 213 l-27 32 -12 -45z m-185
-351 c-5 9 -1 9 16 -3 41 -27 153 -166 134 -166 -5 0 0 -9 10 -20 24 -26 3
-27 -39 -1 -29 18 -59 54 -135 160 -38 54 -40 73 -4 40 14 -13 23 -18 18 -10z"/>
<path d="M1020 4870 c34 -38 64 -70 67 -70 3 0 -23 32 -57 70 -34 39 -64 70
-67 70 -3 0 23 -31 57 -70z"/>
<path d="M1163 5200 c0 -47 2 -66 4 -42 2 23 2 61 0 85 -2 23 -4 4 -4 -43z"/>
<path d="M1368 5098 c-3 -7 -6 -48 -7 -92 -1 -43 -7 -104 -12 -135 -13 -84
-11 -210 6 -265 8 -27 15 -68 16 -90 l0 -41 24 60 c13 33 31 91 40 128 15 60
21 70 49 82 17 8 57 25 89 39 80 35 132 79 167 140 17 28 30 56 30 61 0 6 -12
-10 -26 -35 -14 -25 -33 -53 -42 -64 -27 -30 -123 -91 -177 -112 -27 -10 -53
-20 -57 -22 -17 -7 -7 26 12 43 11 10 20 24 20 32 0 8 5 11 12 7 6 -4 8 -3 4
4 -11 17 49 76 137 137 83 56 126 74 128 52 0 -12 17 20 18 36 2 17 -35 4
-102 -35 -85 -49 -204 -165 -235 -228 l-22 -45 0 55 c0 73 -17 183 -37 248
-17 52 -27 63 -35 40z m37 -134 c18 -99 18 -175 3 -306 l-13 -103 -5 125 -6
125 -3 -100 c-3 -98 -3 -99 -16 -60 -8 22 -14 60 -14 85 -2 64 22 280 30 280
4 0 5 10 2 23 -3 12 -3 19 1 16 4 -4 14 -42 21 -85z"/>
<path d="M1153 5045 c0 -27 2 -38 4 -22 2 15 2 37 0 50 -2 12 -4 0 -4 -28z"/>
<path d="M1142 4950 c0 -19 2 -27 5 -17 2 9 2 25 0 35 -3 9 -5 1 -5 -18z"/>
<path d="M1191 4904 c0 -11 3 -14 6 -6 3 7 2 16 -1 19 -3 4 -6 -2 -5 -13z"/>
<path d="M525 4276 c36 -75 115 -184 115 -160 0 6 -12 21 -26 35 -25 23 -99
157 -91 165 4 5 113 -108 175 -181 23 -27 42 -44 42 -38 0 18 -210 234 -221
227 -5 -3 -9 0 -9 5 0 6 6 11 13 11 8 0 7 4 -3 10 -35 22 -34 5 5 -74z"/>
<path d="M110 4295 c0 -8 4 -15 10 -15 5 0 7 -6 4 -13 -8 -21 55 -96 99 -118
22 -12 87 -30 144 -40 102 -18 184 -48 137 -49 -44 0 -153 -41 -208 -77 -31
-21 -56 -40 -56 -44 0 -11 86 -29 142 -29 67 0 127 27 164 74 16 20 35 36 43
36 17 0 100 -50 161 -97 l45 -35 -46 44 c-25 23 -100 74 -168 112 -111 63
-124 73 -146 116 -23 45 -97 120 -119 120 -5 0 8 -15 30 -34 21 -18 49 -51 62
-74 20 -36 20 -40 5 -46 -19 -8 -156 21 -195 40 -14 8 -40 30 -57 51 -31 38
-41 60 -20 47 8 -5 8 -1 0 14 -10 19 -9 21 26 17 35 -4 36 -4 8 4 -47 13 -65
12 -65 -4z m425 -254 c-30 -28 -156 -80 -210 -86 -57 -7 -59 -6 -38 9 28 21
144 65 198 76 57 11 60 11 50 1z m25 -20 c0 -20 -62 -71 -98 -81 -20 -5 -73
-9 -117 -9 l-80 1 70 13 c41 8 99 28 139 49 70 37 86 42 86 27z"/>
<path d="M278 4283 c7 -3 16 -2 19 1 4 3 -2 6 -13 5 -11 0 -14 -3 -6 -6z"/>
<path d="M160 4256 c0 -2 8 -10 18 -17 15 -13 16 -12 3 4 -13 16 -21 21 -21
13z"/>
<path d="M1421 3968 c-32 -69 -58 -183 -82 -347 -26 -180 -34 -204 -44 -136
-10 77 -33 151 -52 172 -10 10 -15 14 -11 8 21 -32 38 -106 43 -177 5 -95 -3
-94 -52 6 -19 39 -32 58 -29 41 4 -16 25 -65 46 -107 22 -42 40 -89 40 -103 0
-15 -27 -75 -59 -133 -67 -120 -127 -244 -135 -282 l-6 -25 13 26 c6 14 19 34
27 44 8 9 15 24 16 32 2 8 10 23 18 32 9 10 16 23 16 29 0 22 197 182 225 182
5 0 -9 -19 -30 -42 l-40 -43 42 39 c23 22 40 43 38 47 -3 4 2 9 10 13 22 8 19
0 -21 -65 -36 -60 -111 -122 -201 -168 -24 -12 -43 -24 -43 -27 0 -10 155 76
191 105 37 30 116 167 104 179 -11 11 -109 -46 -180 -105 -39 -32 -65 -48 -61
-38 4 10 41 80 82 154 101 182 168 250 268 275 120 30 167 64 181 132 5 23 1
20 -16 -14 -16 -32 -34 -49 -70 -68 -27 -13 -54 -24 -61 -24 -7 0 -40 -12 -73
-26 -33 -14 -67 -26 -75 -28 -8 -1 -39 -39 -69 -84 -30 -45 -56 -81 -57 -79
-10 10 32 199 52 237 98 185 109 213 109 280 0 38 -7 80 -17 100 l-16 35 -21
-47z m38 -125 c-12 -55 -78 -203 -91 -203 -5 0 -2 13 7 30 19 37 19 49 0 24
-15 -18 -15 -18 -10 6 11 58 45 207 52 230 l7 25 7 -25 c6 -23 7 -22 9 10 l2
35 14 -44 c10 -33 11 -55 3 -88z"/>
<path d="M1422 3855 c0 -16 2 -22 5 -12 2 9 2 23 0 30 -3 6 -5 -1 -5 -18z"/>
<path d="M1411 3794 c0 -11 3 -14 6 -6 3 7 2 16 -1 19 -3 4 -6 -2 -5 -13z"/>
<path d="M1401 3763 c-1 -6 -4 -20 -7 -30 -5 -17 -5 -17 6 0 6 10 9 23 6 30
-3 9 -5 9 -5 0z"/>
<path d="M1741 3819 c-68 -26 -256 -193 -291 -259 -7 -14 22 13 66 59 43 46
110 106 148 132 71 50 99 62 75 32 -8 -9 -9 -14 -2 -10 7 4 13 0 15 -10 2 -11
8 -4 15 20 13 42 8 48 -26 36z"/>
<path d="M2670 3784 c-14 -2 -59 -9 -100 -15 -396 -56 -802 -284 -1063 -597
-142 -170 -274 -406 -347 -617 l-34 -100 -34 75 c-19 41 -40 102 -46 135 -7
33 -15 54 -17 46 -8 -23 -48 157 -60 269 -6 58 -9 157 -6 220 4 82 3 104 -4
75 -5 -22 -9 -103 -10 -180 -1 -216 44 -408 134 -576 l41 -77 -22 -98 c-41
-183 -47 -244 -46 -479 0 -245 10 -335 59 -526 109 -424 387 -814 738 -1031
281 -175 641 -261 1017 -244 601 26 1022 296 1369 878 l21 36 -35 22 c-19 12
-39 20 -44 18 -5 -2 -49 -55 -97 -118 -120 -155 -307 -341 -417 -414 -392
-261 -988 -258 -1414 5 -106 66 -262 216 -330 319 -191 286 -274 614 -273
1080 0 459 69 796 222 1091 151 292 378 481 688 574 112 34 209 46 355 46 556
-1 928 -292 1139 -891 l44 -125 42 -3 41 -3 -6 68 c-8 88 -75 1091 -75 1121 0
21 -4 23 -46 20 l-46 -3 -23 -64 c-28 -77 -69 -130 -120 -155 -66 -33 -107
-26 -255 43 -150 71 -295 122 -432 152 -72 16 -137 21 -288 24 -107 2 -206 2
-220 -1z"/>
<path d="M1665 3698 l-50 -53 53 50 c48 46 57 55 49 55 -1 0 -25 -24 -52 -52z"/>
<path d="M1179 3715 c-8 -7 2 -75 11 -75 4 0 6 16 5 35 -2 36 -8 49 -16 40z"/>
<path d="M1580 3629 c-22 -18 -22 -19 -3 -10 12 6 25 16 28 21 9 15 3 12 -25
-11z"/>
<path d="M1499 3573 c-13 -16 -12 -17 4 -4 9 7 17 15 17 17 0 8 -8 3 -21 -13z"/>
<path d="M1227 3560 c3 -14 12 -41 20 -60 11 -30 12 -31 8 -6 -4 16 -13 43
-20 60 -11 23 -13 25 -8 6z"/>
<path d="M982 3410 c0 -14 2 -19 5 -12 2 6 2 18 0 25 -3 6 -5 1 -5 -13z"/>
<path d="M972 3350 c0 -14 2 -19 5 -12 2 6 2 18 0 25 -3 6 -5 1 -5 -13z"/>
<path d="M4536 3197 c-71 -107 -131 -234 -154 -326 l-19 -73 -12 48 c-15 59
-71 180 -98 213 l-20 25 -7 -22 c-8 -24 26 -191 51 -251 9 -20 31 -53 50 -74
28 -31 33 -44 29 -70 -3 -18 -11 -74 -17 -125 -28 -237 -94 -359 -333 -621
-71 -78 -150 -168 -175 -199 l-46 -57 -2 105 c-1 61 -8 126 -17 155 -18 57
-20 131 -6 193 6 24 14 80 19 125 7 65 15 92 40 132 l31 50 2 170 1 170 -37
91 c-20 50 -48 102 -62 115 l-24 22 1 -49 c1 -38 3 -43 8 -24 7 22 9 18 19
-28 13 -56 14 -255 3 -382 l-7 -75 -8 50 c-6 30 -5 94 1 160 6 61 7 139 3 175
l-7 65 -1 -75 c-1 -41 -7 -122 -14 -180 -11 -102 -10 -108 15 -195 15 -49 27
-99 26 -110 0 -11 -8 11 -19 48 -26 99 -103 237 -132 237 -15 0 2 -180 24
-247 14 -45 32 -75 65 -108 l46 -47 -7 -64 c-10 -96 -15 -102 -41 -47 -22 47
-80 131 -170 246 -30 40 -45 68 -45 88 0 57 -22 118 -57 156 -34 37 -34 37
-13 5 24 -36 50 -112 50 -146 0 -18 -4 -16 -37 15 l-37 34 28 -34 c15 -18 25
-36 22 -38 -6 -6 -125 78 -148 104 -22 24 -48 86 -48 115 0 17 6 12 30 -25 16
-26 32 -47 35 -47 2 0 -9 21 -25 47 -39 61 -40 79 -2 57 26 -16 26 -16 -3 9
-16 14 -33 23 -37 21 -3 -2 -5 -30 -4 -62 2 -87 28 -127 122 -189 87 -58 154
-111 154 -123 0 -5 -17 -4 -37 2 -45 12 -221 6 -247 -9 -17 -9 -15 -13 17 -37
85 -65 207 -86 273 -47 19 12 41 21 47 21 16 -1 87 -100 122 -170 29 -57 61
-175 71 -265 8 -68 -12 -212 -35 -245 -25 -36 -33 -50 -28 -50 3 0 20 24 38
52 54 85 140 188 290 350 77 84 164 186 192 227 39 57 68 87 116 118 35 23 69
47 75 53 15 15 -84 -39 -106 -58 -23 -19 -24 -2 -3 38 24 46 53 186 61 290 7
101 16 128 65 187 17 21 10 16 -16 -12 -26 -27 -44 -44 -40 -37 4 8 7 33 7 55
-1 71 67 235 161 390 52 84 67 86 67 10 0 -100 -37 -201 -113 -312 -16 -24
-25 -41 -18 -37 20 13 95 130 118 186 31 75 33 250 3 250 -5 0 -33 -37 -64
-83z m-274 -181 c7 4 8 2 4 -5 -8 -12 62 -236 71 -227 3 2 -11 50 -31 106 -39
110 -44 131 -20 86 27 -49 55 -139 59 -190 l4 -48 -24 22 c-27 25 -44 72 -75
200 -21 91 -25 122 -8 77 5 -15 14 -24 20 -21z m-455 -197 c22 -64 27 -94 30
-225 5 -138 3 -154 -16 -192 -11 -22 -25 -43 -31 -47 -7 -4 -10 78 -10 247 0
139 -3 264 -7 278 -12 48 7 13 34 -61z m-122 -321 c38 -84 69 -183 62 -201 -3
-7 -6 -4 -6 6 -1 23 -93 259 -98 253 -2 -2 16 -60 40 -127 51 -141 61 -179 49
-179 -16 0 -51 45 -73 95 -30 70 -40 225 -14 225 4 0 21 -33 40 -72z m-165
-191 l35 -15 -55 -2 c-30 -1 -73 -5 -95 -10 -27 -5 -8 -7 60 -3 l100 5 -35
-24 c-52 -35 -137 -32 -215 7 -62 32 -70 46 -33 57 37 12 200 1 238 -15z m237
-49 c-3 -8 -6 -5 -6 6 -1 11 2 17 5 13 3 -3 4 -12 1 -19z"/>
<path d="M3328 2283 c7 -3 16 -2 19 1 4 3 -2 6 -13 5 -11 0 -14 -3 -6 -6z"/>
<path d="M1229 3083 c-13 -16 -12 -17 4 -4 9 7 17 15 17 17 0 8 -8 3 -21 -13z"/>
<path d="M1189 3053 c-13 -16 -12 -17 4 -4 9 7 17 15 17 17 0 8 -8 3 -21 -13z"/>
<path d="M4706 2955 c-3 -8 -2 -22 1 -32 4 -9 2 -14 -3 -10 -6 3 -25 -23 -42
-59 -18 -35 -30 -64 -27 -64 3 0 16 22 30 49 23 46 45 73 45 54 0 -4 -9 -46
-20 -93 -21 -87 -127 -317 -158 -342 -10 -9 -13 -9 -9 -1 4 6 9 41 11 77 2 54
11 80 49 156 26 50 43 89 39 86 -4 -3 -27 -42 -50 -89 -39 -76 -51 -120 -68
-230 -3 -24 -19 -54 -42 -80 -24 -28 -15 -22 27 18 34 33 83 88 107 121 48 67
57 73 112 76 36 1 36 1 -8 7 l-45 6 35 22 c19 12 41 27 48 33 43 38 234 93
304 88 l31 -2 -58 -53 c-44 -40 -74 -58 -123 -73 -35 -11 -75 -20 -87 -20 -13
0 -26 -4 -29 -8 -9 -15 123 7 163 28 23 11 69 48 103 83 l63 62 -49 3 c-110 7
-279 -48 -368 -119 -20 -16 -39 -29 -43 -29 -3 0 4 18 14 39 42 82 88 311 63
311 -5 0 -12 -7 -16 -15z"/>
<path d="M1041 2754 c0 -11 3 -14 6 -6 3 7 2 16 -1 19 -3 4 -6 -2 -5 -13z"/>
<path d="M5010 2730 c-8 -5 -10 -10 -5 -10 6 0 17 5 25 10 8 5 11 10 5 10 -5
0 -17 -5 -25 -10z"/>
<path d="M3320 2557 c0 -2 15 -16 33 -33 l32 -29 -29 33 c-28 30 -36 37 -36
29z"/>
<path d="M4297 1861 c-49 -54 -99 -128 -232 -346 -22 -36 -43 -65 -46 -65 -3
0 2 35 12 78 10 42 18 93 18 112 -1 29 -3 27 -9 -15 -10 -69 -49 -195 -60
-195 -5 0 -11 24 -14 53 -12 110 -14 108 -10 -8 3 -88 1 -125 -8 -137 -7 -8
-58 -51 -113 -94 -122 -96 -184 -153 -238 -219 l-41 -50 50 47 c31 30 64 51
89 57 34 9 35 10 8 8 -40 -4 -34 8 12 23 19 6 33 15 30 20 -12 20 206 88 293
91 29 1 52 7 52 12 0 17 -145 -1 -223 -27 -40 -13 -73 -23 -75 -22 -1 2 59 51
134 110 126 100 238 166 281 166 15 0 15 1 -1 13 -17 13 -16 15 18 35 51 30
198 81 279 97 37 7 67 11 67 9 0 -2 -30 -19 -67 -38 -38 -19 -64 -35 -60 -36
4 0 30 12 58 26 28 14 53 24 55 21 7 -7 -68 -88 -97 -102 -18 -10 -61 -15
-121 -16 -80 -1 -87 -3 -48 -10 67 -11 136 -11 165 3 22 10 145 147 145 162 0
14 -95 4 -174 -19 -107 -31 -181 -68 -311 -154 -55 -37 -106 -71 -113 -75 -8
-5 11 32 41 80 42 69 69 100 118 137 143 108 194 176 201 270 3 31 1 57 -3 57
-4 0 -32 -27 -62 -59z m44 -53 c-8 -25 -38 -64 -92 -118 -44 -44 -85 -80 -91
-80 -7 0 -7 4 1 13 6 8 8 16 5 20 -6 5 92 152 129 194 11 12 24 20 30 16 6 -4
7 -1 2 7 -4 7 -2 16 6 21 19 12 24 -25 10 -73z"/>
<path d="M4249 1733 c-13 -16 -12 -17 4 -4 16 13 21 21 13 21 -2 0 -10 -8 -17
-17z"/>
<path d="M4199 1673 l-34 -38 38 34 c20 19 37 36 37 38 0 8 -8 0 -41 -34z"/>
<path d="M4000 1740 c0 -5 5 -10 10 -10 6 0 10 5 10 10 0 6 -4 10 -10 10 -5 0
-10 -4 -10 -10z"/>
<path d="M3993 1645 c0 -44 2 -61 4 -37 2 23 2 59 0 80 -2 20 -4 1 -4 -43z"/>
<path d="M4365 1524 l-50 -14 44 5 c24 3 51 10 60 15 21 12 7 11 -54 -6z"/>
<path d="M3982 1485 c0 -16 2 -22 5 -12 2 9 2 23 0 30 -3 6 -5 -1 -5 -18z"/>
<path d="M4255 1500 c-25 -11 1 -11 35 0 20 6 21 8 5 8 -11 0 -29 -3 -40 -8z"/>
<path d="M3660 1470 c-6 -11 -8 -20 -6 -20 3 0 10 9 16 20 6 11 8 20 6 20 -3
0 -10 -9 -16 -20z"/>
<path d="M3616 1398 c-38 -63 -103 -234 -126 -331 -27 -115 -39 -280 -28 -391
5 -50 11 -92 13 -95 3 -2 2 47 -2 110 -4 93 -3 121 11 153 20 48 20 56 1 30
-13 -17 -14 -16 -9 21 21 161 67 319 134 462 21 46 37 83 35 83 -2 0 -15 -19
-29 -42z"/>
<path d="M4002 1176 c-58 -41 -106 -58 -222 -80 -14 -3 7 -3 46 -1 83 4 138
27 204 85 25 22 43 39 40 40 -3 0 -33 -20 -68 -44z"/>
<path d="M3975 1190 c-3 -6 1 -7 9 -4 18 7 21 14 7 14 -6 0 -13 -4 -16 -10z"/>
<path d="M3915 1174 c-40 -14 -40 -14 -5 -9 19 3 39 10 44 15 12 12 12 12 -39
-6z"/>
<path d="M3848 1153 c7 -3 16 -2 19 1 4 3 -2 6 -13 5 -11 0 -14 -3 -6 -6z"/>
<path d="M3808 1143 c7 -3 16 -2 19 1 4 3 -2 6 -13 5 -11 0 -14 -3 -6 -6z"/>
<path d="M3768 1133 c7 -3 16 -2 19 1 4 3 -2 6 -13 5 -11 0 -14 -3 -6 -6z"/>
<path d="M3539 953 c-13 -16 -12 -17 4 -4 16 13 21 21 13 21 -2 0 -10 -8 -17
-17z"/>
</g>
</svg>
